<svg xmlns="http://www.w3.org/2000/svg" viewBox="430 0 390 165" preserveAspectRatio="xMidYMid meet">
<g transform="translate(0,426) scale(0.1,-0.1)" fill="#2d5a27" stroke="none">
<path d="M7145 4254 c-11 -3 -60 -12 -110 -21 -232 -42 -456 -151 -637 -310
-206 -182 -355 -428 -432 -716 -24 -92 -51 -279 -44 -312 2 -11 30 20 85 92
45 61 141 170 215 245 310 313 603 493 968 592 97 26 263 55 345 61 l80 5
-130 -34 c-461 -122 -741 -265 -1044 -532 -126 -111 -332 -328 -436 -459 -116
-146 -304 -445 -320 -508 -6 -23 -4 -26 29 -32 20 -4 42 -5 50 -2 7 3 37 50
66 104 73 136 163 266 240 346 75 76 84 79 220 53 237 -45 528 -41 720 11 305
81 580 270 811 558 31 39 125 172 208 297 145 218 240 346 295 397 14 14 26
28 26 33 0 4 -30 8 -67 8 -79 0 -200 19 -363 55 -251 57 -393 75 -580 74 -96
-1 -184 -3 -195 -5z M4812 3663 l4 -308 28 -80 c86 -241 252 -393 526 -483
115 -38 224 -70 264 -78 l39 -7 -6 32 c-12 57 -76 183 -152 297 -80 120 -186
246 -328 391 -50 51 -89 95 -86 98 9 8 135 -84 221 -161 160 -144 278 -303
368 -498 22 -48 43 -86 48 -86 15 0 53 129 63 216 31 274 -75 491 -318 648
-81 52 -237 131 -338 171 -38 15 -128 56 -199 91 -71 35 -131 64 -133 64 -3 0
-3 -138 -1 -307z"/>
</g>
</svg>
