<svg height="400" viewBox="0 0 600 400" width="600" xmlns="http://www.w3.org/2000/svg" xmlns:xlink="http://www.w3.org/1999/xlink"><marker id="a" markerHeight="6" markerWidth="8" orient="auto" refX="8" refY="3"><path d="m0 0 8 3-8 3z" fill="#4a8c3f"/></marker><rect fill="#f5f2eb" height="400" rx="24" width="600"/><g stroke="#d4c5a0"><ellipse cx="300" cy="120" fill="#fff" rx="50" ry="30" stroke-width="2"/><ellipse cx="275" cy="100" fill="#fff" rx="22" ry="22" stroke-width="1.5"/><ellipse cx="300" cy="92" fill="#fff" rx="22" ry="22" stroke-width="1.5"/><ellipse cx="325" cy="100" fill="#fff" rx="22" ry="22" stroke-width="1.5"/><rect fill="#fff" height="20" rx="4" stroke-width="2" width="100" x="250" y="120"/><ellipse cx="300" cy="260" fill="#e8e4dc" rx="120" ry="30" stroke-width="2"/></g><ellipse cx="300" cy="256" fill="#fff" rx="95" ry="22"/><ellipse cx="275" cy="245" fill="#7bc462" rx="28" ry="16" transform="matrix(.96592583 -.25881905 .25881905 .96592583 -54.040268 79.52341)"/><ellipse cx="280" cy="240" fill="#9ddf84" rx="20" ry="12" transform="matrix(.98480775 -.17364818 .17364818 .98480775 -37.421733 52.267629)"/><ellipse cx="320" cy="248" fill="#4a8c3f" rx="24" ry="14" transform="matrix(.98480775 .17364818 -.17364818 .98480775 47.926267 -51.79974)"/><path d="m305 250v-25" stroke="#3a6b35" stroke-width="1.5"/><ellipse cx="298" cy="228" fill="#4a9040" rx="8" ry="6" transform="matrix(.93969262 -.34202014 .34202014 .93969262 -60.008994 115.672085)"/><ellipse cx="312" cy="230" fill="#55a348" rx="8" ry="6" transform="matrix(.96592583 .25881905 -.25881905 .96592583 70.159523 -72.914482)"/><ellipse cx="305" cy="222" fill="#4a9040" rx="7" ry="5"/><rect fill="#b5a06a" height="80" rx="2" width="4" x="160" y="220"/><rect fill="#b5a06a" height="30" rx="1" width="3" x="157" y="200"/><rect fill="#b5a06a" height="30" rx="1" width="3" x="161" y="200"/><rect fill="#b5a06a" height="30" rx="1" width="3" x="165" y="200"/><g fill="#b5a06a" transform="translate(430 200)"><rect height="80" rx="2" width="4" y="20"/><path d="m-2 0s-2 12 4 20c6-8 4-20 4-20z"/></g><g font-family="'Outfit',sans-serif" text-anchor="middle" transform="translate(300 320)"><text fill="#8a7a55" font-size="14" font-weight="600">Del invernadero a tu cocina</text><text fill="#4a8c3f" font-size="12" font-weight="700" y="24">Provisión gastronómica</text></g><g transform="translate(80 250)"><g stroke="#4a8c3f"><rect fill="none" height="30" rx="2" stroke-width="1.5" width="50" y="10"/><path d="m0 10 25-18 25 18" fill="none" stroke-width="1.5"/><path d="m25-8v48" opacity=".5"/><path d="m0 25h50" opacity=".5"/></g><circle cx="15" cy="32" fill="#7bc462" opacity=".6" r="5"/><circle cx="35" cy="32" fill="#9ddf84" opacity=".6" r="5"/></g><path d="m140 265c30 0 35-5 60-5" fill="none" marker-end="url(#a)" stroke="#4a8c3f" stroke-linecap="round" stroke-width="2"/></svg>