<?xml version="1.0" standalone="no"?>
<!DOCTYPE svg PUBLIC "-//W3C//DTD SVG 20010904//EN"
 "http://www.w3.org/TR/2001/REC-SVG-20010904/DTD/svg10.dtd">
<svg version="1.0" xmlns="http://www.w3.org/2000/svg"
 width="357.000000pt" height="124.000000pt" viewBox="0 0 357.000000 124.000000"
 preserveAspectRatio="xMidYMid meet">

<g transform="translate(0.000000,124.000000) scale(0.100000,-0.100000)"
fill="#000000" stroke="none">
<path d="M245 854 c-24 -37 -22 -149 4 -243 11 -41 20 -76 18 -77 -1 -1 -24
18 -50 42 -27 24 -52 44 -57 44 -5 0 -16 3 -26 7 -11 4 -15 3 -11 -4 8 -13
-17 -36 -27 -25 -16 15 19 -54 37 -75 18 -20 99 -65 140 -77 14 -5 16 -10 7
-25 -5 -11 -10 -23 -10 -28 1 -4 8 4 16 20 8 15 20 27 26 27 9 0 9 -3 0 -12
-7 -7 -12 -17 -12 -22 0 -6 4 -5 9 3 7 11 18 7 53 -22 25 -20 48 -34 52 -30 4
4 37 6 73 5 59 -3 65 -2 59 14 -6 16 -5 16 16 -1 l23 -19 -22 24 c-22 24 -102
59 -138 61 -25 1 82 38 113 38 13 1 21 5 17 10 -7 13 30 32 48 25 11 -4 13 1
9 22 -3 18 0 29 12 36 22 12 20 25 -4 31 -11 3 -20 13 -20 22 0 12 -5 15 -16
11 -9 -3 -19 -6 -23 -6 -5 0 -43 -27 -86 -60 -43 -33 -80 -58 -83 -55 -3 3 32
44 78 90 l84 84 -23 25 c-22 23 -23 28 -11 56 16 39 8 47 -35 31 -19 -7 -41
-9 -47 -5 -7 4 -10 4 -6 -1 4 -4 -1 -15 -12 -24 -11 -10 -31 -63 -50 -134 -18
-65 -35 -116 -37 -113 -3 2 1 47 7 100 14 105 7 181 -16 190 -8 3 -13 11 -12
18 2 7 -3 12 -10 13 -8 0 -19 8 -27 18 -12 16 -14 16 -30 -9z"/>
<path d="M1665 849 c3 -9 -1 -54 -9 -99 -19 -96 -18 -93 -8 -86 5 3 14 44 21
91 10 66 11 89 2 98 -9 9 -11 8 -6 -4z"/>
<path d="M1846 830 c3 -19 1 -62 -4 -95 -9 -51 -8 -63 6 -78 16 -18 15 -20 -4
-36 -16 -13 -26 -45 -45 -151 -22 -122 -26 -136 -49 -147 -17 -9 -20 -13 -8
-13 32 0 46 29 67 143 11 63 21 121 21 129 0 9 10 22 23 31 19 13 20 18 9 37
-10 16 -11 43 -6 100 4 49 2 84 -4 96 -9 15 -10 12 -6 -16z"/>
<path d="M2766 847 c3 -9 0 -25 -7 -34 -12 -14 -12 -16 1 -11 19 6 25 37 10
52 -8 8 -10 7 -4 -7z"/>
<path d="M3001 755 c34 -96 49 -130 49 -113 0 13 -72 204 -80 212 -5 5 9 -40
31 -99z"/>
<path d="M3198 821 c4 -40 -26 -252 -56 -401 -14 -71 -21 -87 -42 -97 -15 -8
-19 -13 -9 -13 35 0 49 25 69 130 40 209 61 379 50 400 -15 28 -16 26 -12 -19z"/>
<path d="M832 825 c0 -16 2 -22 5 -12 2 9 2 23 0 30 -3 6 -5 -1 -5 -18z"/>
<path d="M1346 827 c3 -10 9 -15 12 -12 3 3 0 11 -7 18 -10 9 -11 8 -5 -6z"/>
<path d="M2291 814 c0 -11 3 -14 6 -6 3 7 2 16 -1 19 -3 4 -6 -2 -5 -13z"/>
<path d="M2718 793 c7 -3 16 -2 19 1 4 3 -2 6 -13 5 -11 0 -14 -3 -6 -6z"/>
<path d="M2678 783 c7 -3 16 -2 19 1 4 3 -2 6 -13 5 -11 0 -14 -3 -6 -6z"/>
<path d="M1256 772 c-3 -5 1 -9 9 -9 8 0 12 4 9 9 -3 4 -7 8 -9 8 -2 0 -6 -4
-9 -8z"/>
<path d="M2050 748 c0 -21 2 -38 4 -38 9 0 12 50 5 62 -6 8 -9 -1 -9 -24z"/>
<path d="M2628 773 c6 -2 18 -2 25 0 6 3 1 5 -13 5 -14 0 -19 -2 -12 -5z"/>
<path d="M2578 763 c6 -2 18 -2 25 0 6 3 1 5 -13 5 -14 0 -19 -2 -12 -5z"/>
<path d="M2516 752 c-3 -5 -8 -29 -10 -53 l-5 -44 10 47 c8 36 16 48 32 51
l22 4 -22 2 c-12 0 -24 -3 -27 -7z"/>
<path d="M2292 730 c0 -14 2 -19 5 -12 2 6 2 18 0 25 -3 6 -5 1 -5 -13z"/>
<path d="M2343 723 c9 -2 25 -2 35 0 9 3 1 5 -18 5 -19 0 -27 -2 -17 -5z"/>
<path d="M1371 704 c0 -11 3 -14 6 -6 3 7 2 16 -1 19 -3 4 -6 -2 -5 -13z"/>
<path d="M2042 680 c0 -14 2 -19 5 -12 2 6 2 18 0 25 -3 6 -5 1 -5 -13z"/>
<path d="M2270 643 c-7 -32 -15 -65 -17 -73 -4 -13 -3 -13 5 0 12 19 36 120
30 126 -3 2 -11 -22 -18 -53z"/>
<path d="M2638 645 c3 -19 -1 -27 -19 -34 -17 -7 -19 -10 -7 -10 17 -1 48 24
48 38 0 5 -6 14 -14 20 -11 9 -12 6 -8 -14z"/>
<path d="M2931 660 c-1 -3 -12 -70 -26 -149 -19 -113 -29 -149 -46 -167 -13
-13 -18 -24 -12 -24 28 0 46 45 69 177 13 76 22 145 20 153 -2 8 -4 13 -5 10z"/>
<path d="M2032 630 c0 -14 2 -19 5 -12 2 6 2 18 0 25 -3 6 -5 1 -5 -13z"/>
<path d="M2022 575 c0 -16 2 -22 5 -12 2 9 2 23 0 30 -3 6 -5 -1 -5 -18z"/>
<path d="M2568 593 c7 -3 16 -2 19 1 4 3 -2 6 -13 5 -11 0 -14 -3 -6 -6z"/>
<path d="M1258 583 c7 -3 16 -2 19 1 4 3 -2 6 -13 5 -11 0 -14 -3 -6 -6z"/>
<path d="M2518 583 c6 -2 18 -2 25 0 6 3 1 5 -13 5 -14 0 -19 -2 -12 -5z"/>
<path d="M651 546 l-25 -31 30 25 c16 14 30 26 32 26 2 1 0 4 -5 7 -4 2 -19
-10 -32 -27z"/>
<path d="M1198 573 c6 -2 18 -2 25 0 6 3 1 5 -13 5 -14 0 -19 -2 -12 -5z"/>
<path d="M1626 558 c-3 -13 -12 -61 -20 -107 -18 -97 -39 -128 -95 -134 l-36
-4 37 -1 c61 -3 85 27 104 128 8 47 17 95 20 107 2 13 13 23 27 26 19 4 18 4
-5 6 -21 1 -29 -4 -32 -21z"/>
<path d="M2475 528 c-3 -29 -9 -61 -11 -70 -3 -10 -1 -18 4 -18 9 0 27 129 18
137 -2 2 -7 -20 -11 -49z"/>
<path d="M1272 535 c0 -16 2 -22 5 -12 2 9 2 23 0 30 -3 6 -5 -1 -5 -18z"/>
<path d="M2348 553 c7 -3 16 -2 19 1 4 3 -2 6 -13 5 -11 0 -14 -3 -6 -6z"/>
<path d="M1384 465 c0 -49 1 -71 3 -48 2 23 2 64 0 90 -2 26 -3 8 -3 -42z"/>
<path d="M2222 500 c-11 -27 -19 -50 -16 -50 7 0 45 92 41 97 -2 2 -14 -19
-25 -47z"/>
<path d="M2011 483 c0 -34 2 -64 7 -66 4 -3 6 16 4 41 -5 80 -9 90 -11 25z"/>
<path d="M2170 405 c-11 -19 -35 -46 -51 -60 -17 -14 -27 -25 -22 -25 12 0 78
70 92 98 18 34 5 26 -19 -13z"/>
<path d="M1151 414 c0 -11 3 -14 6 -6 3 7 2 16 -1 19 -3 4 -6 -2 -5 -13z"/>
<path d="M2670 401 c0 -21 -16 -37 -45 -44 -19 -4 -18 -5 2 -6 26 -1 53 24 53
50 0 10 -2 19 -5 19 -3 0 -5 -8 -5 -19z"/>
<path d="M940 364 c-17 -9 -20 -14 -9 -14 9 0 22 7 29 15 15 18 13 18 -20 -1z"/>
<path d="M1079 361 c12 -8 51 -4 51 5 0 2 -15 4 -32 4 -23 0 -29 -3 -19 -9z"/>
<path d="M878 343 c7 -3 16 -2 19 1 4 3 -2 6 -13 5 -11 0 -14 -3 -6 -6z"/>
<path d="M2578 343 c7 -3 16 -2 19 1 4 3 -2 6 -13 5 -11 0 -14 -3 -6 -6z"/>
<path d="M828 333 c7 -3 16 -2 19 1 4 3 -2 6 -13 5 -11 0 -14 -3 -6 -6z"/>
<path d="M1365 330 c-3 -5 -1 -10 4 -10 6 0 11 5 11 10 0 6 -2 10 -4 10 -3 0
-8 -4 -11 -10z"/>
<path d="M2528 333 c7 -3 16 -2 19 1 4 3 -2 6 -13 5 -11 0 -14 -3 -6 -6z"/>
<path d="M2478 323 c7 -3 16 -2 19 1 4 3 -2 6 -13 5 -11 0 -14 -3 -6 -6z"/>
<path d="M693 313 c9 -2 25 -2 35 0 9 3 1 5 -18 5 -19 0 -27 -2 -17 -5z"/>
<path d="M1288 313 c12 -2 32 -2 45 0 12 2 2 4 -23 4 -25 0 -35 -2 -22 -4z"/>
<path d="M2018 313 c12 -2 32 -2 45 0 12 2 2 4 -23 4 -25 0 -35 -2 -22 -4z"/>
<path d="M2398 313 c12 -2 30 -2 40 0 9 3 -1 5 -23 4 -22 0 -30 -2 -17 -4z"/>
<path d="M2793 313 c9 -2 23 -2 30 0 6 3 -1 5 -18 5 -16 0 -22 -2 -12 -5z"/>
</g>
</svg>
