<svg xmlns="http://www.w3.org/2000/svg" viewBox="0 0 1194 426" preserveAspectRatio="xMidYMid meet">
<g transform="translate(0,426) scale(0.1,-0.1)" fill="#ffffff" stroke="none">
<path d="M7145 4254 c-11 -3 -60 -12 -110 -21 -232 -42 -456 -151 -637 -310
-206 -182 -355 -428 -432 -716 -24 -92 -51 -279 -44 -312 2 -11 30 20 85 92
45 61 141 170 215 245 310 313 603 493 968 592 97 26 263 55 345 61 l80 5
-130 -34 c-461 -122 -741 -265 -1044 -532 -126 -111 -332 -328 -436 -459 -116
-146 -304 -445 -320 -508 -6 -23 -4 -26 29 -32 20 -4 42 -5 50 -2 7 3 37 50
66 104 73 136 163 266 240 346 75 76 84 79 220 53 237 -45 528 -41 720 11 305
81 580 270 811 558 31 39 125 172 208 297 145 218 240 346 295 397 14 14 26
28 26 33 0 4 -30 8 -67 8 -79 0 -200 19 -363 55 -251 57 -393 75 -580 74 -96
-1 -184 -3 -195 -5z M4812 3663 l4 -308 28 -80 c86 -241 252 -393 526 -483
115 -38 224 -70 264 -78 l39 -7 -6 32 c-12 57 -76 183 -152 297 -80 120 -186
246 -328 391 -50 51 -89 95 -86 98 9 8 135 -84 221 -161 160 -144 278 -303
368 -498 22 -48 43 -86 48 -86 15 0 53 129 63 216 31 274 -75 491 -318 648
-81 52 -237 131 -338 171 -38 15 -128 56 -199 91 -71 35 -131 64 -133 64 -3 0
-3 -138 -1 -307z M4287 2693 c-3 -4 -8 -44 -12 -88 -8 -103 -31 -294 -50 -415
-48 -317 -217 -1914 -213 -2005 8 -146 47 -182 188 -172 141 10 342 79 373
128 8 13 22 80 32 149 48 352 175 667 375 930 77 100 178 196 235 221 43 19
48 19 70 5 31 -20 39 -65 26 -141 -5 -33 -35 -206 -65 -385 -62 -363 -90 -604
-83 -697 6 -78 41 -150 86 -180 32 -22 43 -23 232 -23 l197 0 6 28 c3 15 52
324 108 687 92 596 102 674 103 800 0 134 -1 142 -27 192 -70 131 -190 192
-357 180 -304 -21 -633 -312 -873 -772 -37 -71 -68 -126 -68 -121 0 5 58 260
130 568 71 307 137 602 146 656 28 173 8 288 -67 384 -55 68 -70 72 -290 76
-108 2 -199 0 -202 -5z M308 2683 c-57 -3 -78 -8 -78 -17 0 -8 -45 -436 -100
-952 -118 -1101 -130 -1230 -130 -1386 0 -185 26 -264 100 -300 33 -16 51 -16
335 3 165 11 455 23 645 26 321 5 348 7 381 25 93 52 200 269 202 413 1 70
-13 102 -49 111 -23 6 -219 -35 -739 -155 -115 -27 -214 -45 -219 -40 -5 4 -9
77 -9 161 0 128 15 288 92 978 73 650 92 847 89 930 -6 183 -33 203 -283 205
-88 1 -195 0 -237 -2z M6365 1908 c-7 -22 -173 -1359 -179 -1448 -11 -151 14
-262 78 -337 42 -50 163 -104 248 -110 175 -13 379 62 537 196 124 106 263
296 370 505 34 65 61 116 61 113 0 -3 -25 -84 -55 -180 -70 -221 -85 -287 -85
-367 0 -101 57 -207 132 -246 37 -19 356 -20 363 -1 10 29 177 1580 177 1652
1 122 -43 201 -126 223 -39 11 -163 -1 -295 -28 -132 -27 -189 -49 -214 -83
l-21 -27 22 -89 c24 -97 27 -167 12 -257 -42 -237 -269 -684 -440 -867 -87
-93 -131 -115 -164 -81 -28 27 -19 160 34 525 81 568 87 701 34 798 -33 63
-71 96 -122 111 -56 15 -362 13 -367 -2z M9219 1909 c-119 -10 -225 -42 -349
-105 -317 -161 -532 -462 -607 -849 -24 -127 -24 -385 0 -475 33 -123 81 -206
165 -290 124 -124 248 -177 437 -187 316 -16 604 100 793 320 115 135 158 293
87 325 -22 10 -35 6 -108 -33 -252 -138 -371 -182 -517 -192 -105 -7 -162 7
-206 51 -35 35 -67 123 -68 189 l-1 38 150 44 c356 104 579 217 735 374 92 93
136 177 152 291 29 193 -53 342 -234 433 -114 56 -260 79 -429 66z m38 -305
c42 -26 58 -72 57 -164 0 -74 -4 -95 -30 -150 -37 -78 -112 -156 -205 -211
-68 -41 -227 -104 -237 -94 -10 10 19 157 50 255 90 285 245 439 365 364z
M10225 1908 c-11 -36 -188 -1666 -189 -1743 -2 -145 22 -164 193 -151 175 13
348 71 376 126 8 15 19 61 25 102 40 268 104 478 215 697 114 227 291 448 400
501 37 18 48 19 67 9 13 -7 26 -17 30 -23 12 -18 9 -88 -7 -173 -32 -171 -114
-684 -125 -791 -23 -206 4 -360 72 -417 l30 -25 202 2 201 3 108 690 c122 785
131 880 88 989 -86 217 -354 268 -646 121 -113 -57 -197 -120 -307 -232 -149
-150 -282 -347 -374 -552 -95 -210 -21 14 94 284 106 248 118 295 104 379 -12
77 -48 152 -84 179 -39 29 -95 36 -291 37 -134 0 -179 -3 -182 -12z M2710
1895 c-431 -87 -775 -458 -882 -948 -19 -86 -22 -132 -22 -292 1 -163 4 -201
22 -270 68 -249 214 -385 414 -385 179 0 368 95 528 266 79 85 201 248 270
363 29 47 50 77 46 67 -16 -46 -68 -326 -74 -400 -13 -145 7 -209 79 -251 30
-18 56 -20 216 -23 l182 -4 5 34 c3 18 24 224 46 458 58 605 85 754 210 1137
59 177 62 212 23 243 -35 27 -58 24 -280 -35 l-162 -43 -102 35 c-56 19 -136
41 -178 49 -95 17 -255 16 -341 -1z m54 -335 c32 -11 121 -52 197 -92 133 -68
140 -73 134 -98 -12 -49 -224 -466 -292 -574 -100 -156 -205 -289 -270 -340
-68 -54 -89 -60 -113 -36 -27 27 -39 79 -51 228 -29 352 67 775 203 898 32 29
45 34 86 34 27 0 75 -9 106 -20z"/>
</g>
</svg>
