<svg xmlns="http://www.w3.org/2000/svg" viewBox="0 0 400 180" width="800" height="360">
  <defs>
    <style>
      @import url('https://fonts.googleapis.com/css2?family=Alkatra:wght@400;700&amp;display=swap');
    </style>
  </defs>

  <text x="200" y="80" font-family="'Alkatra', cursive, serif" font-weight="700" font-size="68"
        fill="#4a4a4a" text-anchor="middle" letter-spacing="1">Lahuen</text>

  <g transform="translate(188, 38)">
    <path d="M0,3 C-3,-4 -8,-12 -13,-20 C-15,-24 -18,-25 -19,-22 C-20,-17 -16,-7 -10,-1 C-7,1 -3,3 0,3Z" fill="#6a6a6a"/>
    <path d="M-1,1 C-5,-5 -10,-13 -15,-22" stroke="#5a5a5a" stroke-width="1" fill="none" stroke-linecap="round" opacity="0.5"/>
    <path d="M0,3 C3,-4 8,-12 13,-20 C15,-24 18,-25 19,-22 C20,-17 16,-7 10,-1 C7,1 3,3 0,3Z" fill="#808080"/>
    <path d="M1,1 C5,-5 10,-13 15,-22" stroke="#5a5a5a" stroke-width="1" fill="none" stroke-linecap="round" opacity="0.5"/>
    <path d="M0,3 C-0.4,-2 -0.2,-7 0,-13 C0.2,-7 0.4,-2 0,3Z" fill="#808080" opacity="0.45"/>
  </g>

  <text x="200" y="115" font-family="'Alkatra', cursive, serif" font-weight="400" font-size="28"
        fill="#6a6a6a" text-anchor="middle" letter-spacing="1.5" font-style="italic">Hidroponía Viva</text>
  <line x1="115" y1="127" x2="285" y2="127" stroke="#999999" stroke-width="1.5" opacity="0.35"/>
  <text x="200" y="150" font-family="'Outfit', 'Helvetica Neue', sans-serif" font-weight="400" font-size="13"
        fill="#888888" text-anchor="middle" letter-spacing="3">LECHUGA HIDROPÓNICA · SIN AGROQUÍMICOS</text>
</svg>