<svg xmlns="http://www.w3.org/2000/svg" viewBox="0 0 300 200" width="300" height="200">
  <defs>
    <filter id="sketchy-cv">
      <feTurbulence type="turbulence" baseFrequency="0.035" numOctaves="3" result="noise" seed="5"/>
      <feDisplacementMap in="SourceGraphic" in2="noise" scale="1.8" xChannelSelector="R" yChannelSelector="G"/>
    </filter>
  </defs>
  <g filter="url(#sketchy-cv)">
    <!-- Outer ruffled leaves - green curly lettuce with wavy irregular edges -->
    <path d="M88,120 C82,108 78,92 84,76 C88,66 96,58 106,56 C100,62 92,74 90,86 C88,96 86,108 88,120Z M88,120 C92,124 98,126 104,122 C98,118 92,116 88,120Z" fill="#5aaa42" stroke="#3e7e30" stroke-width="1.3" stroke-linecap="round" opacity="0.8"/>
    <path d="M212,120 C218,107 222,92 216,76 C212,65 204,58 194,56 C200,63 208,74 210,87 C212,97 214,108 212,120Z M212,120 C208,124 202,126 196,122 C202,118 208,116 212,120Z" fill="#56a83e" stroke="#3e7e30" stroke-width="1.3" stroke-linecap="round" opacity="0.8"/>
    <!-- More ruffled outer leaves -->
    <path d="M96,126 C90,114 86,96 94,78 C100,66 110,60 120,58 C114,66 104,80 100,94 C96,106 96,118 96,126Z" fill="#66b852" stroke="#4a8e3a" stroke-width="1.2" stroke-linecap="round" opacity="0.85"/>
    <path d="M204,126 C210,113 214,96 206,78 C200,65 190,60 180,58 C186,67 196,80 200,95 C204,107 204,118 204,126Z" fill="#62b64e" stroke="#4a8e3a" stroke-width="1.2" stroke-linecap="round" opacity="0.85"/>
    <!-- Curly ruffle detail paths -->
    <path d="M92,116 Q86,108 90,98 Q94,88 88,80 Q92,72 100,68" stroke="#4a8e3a" stroke-width="0.8" fill="none" stroke-linecap="round" opacity="0.4"/>
    <path d="M208,116 Q214,108 210,98 Q206,88 212,80 Q208,72 200,68" stroke="#4a8e3a" stroke-width="0.8" fill="none" stroke-linecap="round" opacity="0.4"/>
    <!-- Middle leaves -->
    <path d="M110,118 C106,106 108,88 118,74 C126,64 136,60 148,60 C140,68 128,80 122,94 C118,104 114,112 110,118Z" fill="#78ca64" stroke="#56a042" stroke-width="1.1" stroke-linecap="round"/>
    <path d="M190,118 C194,105 192,88 182,74 C174,63 164,60 152,60 C160,69 172,80 178,95 C182,105 186,112 190,118Z" fill="#74c860" stroke="#56a042" stroke-width="1.1" stroke-linecap="round"/>
    <!-- Ruffled edges on middle leaves -->
    <path d="M112,114 Q108,104 114,94 Q118,86 112,78" stroke="#56a042" stroke-width="0.7" fill="none" stroke-linecap="round" opacity="0.35"/>
    <path d="M188,114 Q192,104 186,94 Q182,86 188,78" stroke="#56a042" stroke-width="0.7" fill="none" stroke-linecap="round" opacity="0.35"/>
    <!-- Inner leaves -->
    <path d="M124,112 C122,100 126,84 138,74 C144,70 150,68 154,70 C146,76 136,86 132,98 C128,106 126,110 124,112Z" fill="#8cd87a" stroke="#66ae54" stroke-width="0.9" stroke-linecap="round"/>
    <path d="M176,112 C178,99 174,84 162,74 C156,69 150,68 146,70 C154,77 164,86 168,99 C172,107 174,110 176,112Z" fill="#88d676" stroke="#66ae54" stroke-width="0.9" stroke-linecap="round"/>
    <!-- Center heart -->
    <path d="M136,104 C134,94 138,80 148,74 C150,73 152,73 154,74 C162,80 166,94 164,104 C160,110 156,112 150,112 C144,112 140,110 136,104Z" fill="#a6e898" stroke="#7ec06c" stroke-width="0.8" stroke-linecap="round"/>
    <path d="M142,98 C141,92 144,82 149,78 C151,77 153,78 155,80 C158,84 160,92 158,98 C156,102 154,104 150,104 C146,104 144,102 142,98Z" fill="#c2f4b8" stroke="#96d486" stroke-width="0.6" stroke-linecap="round"/>
  </g>
</svg>